# xmcd
#
# Track frame offsets:
#	225
#	13163
#	23295
#	38595
#	52897
#	65576
#	82845
#	93483
#	108030
#	125142
#	136801
#	153486
#	171962
#
# Disc length: 2487 seconds
#
# Revision: 1
# Processed by: cddbd v1.4PL0 Copyright (c) Steve Scherf et al.
# Submitted via: audiograbber 1.81.03
#
DISCID=9809b40d
DTITLE=Dixielanders Hall - From New Orleans to Chicago
DYEAR=1900
DGENRE=
TTITLE0=Chicago
TTITLE1=Original Dixieland One Step
TTITLE2=Mame
TTITLE3=Outer Drive
TTITLE4=Wild Cat Blues
TTITLE5=Icecream
TTITLE6=Five Foot Two (Eyes of Blue)
TTITLE7=No Name Blues
TTITLE8=Margie
TTITLE9=Tiger Rag
TTITLE10=On the sunny side of the street
TTITLE11=12th street Rag
TTITLE12=September in the Rain
EXTD=
EXTT0=
EXTT1=
EXTT2=
EXTT3=
EXTT4=
EXTT5=
EXTT6=
EXTT7=
EXTT8=
EXTT9=
EXTT10=
EXTT11=
EXTT12=
PLAYORDER=
